<?xml version="1.0" standalone="no"?>
<!DOCTYPE svg PUBLIC "-//W3C//DTD SVG 20010904//EN"
 "http://www.w3.org/TR/2001/REC-SVG-20010904/DTD/svg10.dtd">
<svg version="1.0" xmlns="http://www.w3.org/2000/svg"
 width="1100.000000pt" height="1100.000000pt" viewBox="0 0 1100.000000 1100.000000"
 preserveAspectRatio="xMidYMid meet">
<metadata>
Created by potrace 1.16, written by Peter Selinger 2001-2019
</metadata>
<g transform="translate(0.000000,1100.000000) scale(0.100000,-0.100000)"
fill="#000000" stroke="none">
<path d="M0 5500 l0 -5500 5500 0 5500 0 0 5500 0 5500 -5500 0 -5500 0 0
-5500z m6220 1732 c61 -32 106 -77 138 -137 l27 -50 6 -410 c6 -467 7 -471 90
-640 89 -182 225 -318 404 -406 178 -88 199 -91 675 -98 l415 -6 54 -30 c29
-16 68 -47 87 -68 65 -77 64 -62 64 -777 0 -742 4 -709 -85 -796 -91 -88 -60
-85 -825 -82 l-665 3 -42 23 c-66 35 -107 76 -139 139 l-29 58 -6 420 c-6 478
-8 492 -96 655 -94 176 -227 303 -407 390 -147 71 -211 84 -391 84 -176 0
-269 -20 -399 -86 -113 -56 -160 -91 -246 -177 -121 -122 -202 -272 -234 -436
-13 -65 -17 -171 -19 -575 l-2 -495 -893 -3 -893 -2 4 587 c3 496 6 604 21
693 74 453 258 871 545 1240 84 108 300 326 411 414 290 230 669 421 1005 504
340 85 396 90 940 88 l440 -1 45 -23z m1659 9 c192 -60 301 -213 301 -426 0
-188 -84 -327 -245 -406 -68 -33 -73 -34 -195 -34 -121 0 -128 1 -192 33 -139
68 -225 185 -248 336 -35 225 100 444 308 501 72 20 200 18 271 -4z"/>
<path d="M7624 7150 c-83 -27 -153 -91 -196 -177 -30 -61 -33 -75 -32 -157 0
-78 4 -100 28 -152 33 -74 102 -145 171 -176 73 -33 218 -32 293 1 68 31 143
113 173 189 31 80 31 196 0 274 -66 169 -259 256 -437 198z m229 -144 c52 -22
72 -51 72 -108 0 -43 -4 -53 -32 -78 -30 -27 -31 -29 -13 -45 15 -14 60 -133
60 -160 0 -3 -19 -5 -42 -3 -40 3 -42 4 -59 57 -27 80 -31 82 -113 79 l-71 -3
-3 -67 -3 -68 -39 0 -40 0 0 205 0 205 125 0 c84 0 136 -5 158 -14z"/>
<path d="M7654 6926 c-3 -7 -4 -33 -2 -57 l3 -44 72 -3 c40 -2 81 2 92 7 27
15 35 58 16 87 -14 22 -22 24 -96 24 -59 0 -81 -4 -85 -14z"/>
</g>
</svg>
